<svg xmlns="http://www.w3.org/2000/svg" viewBox="0 0 512 512" width="512" height="512">
  <!-- 背景 -->
  <rect width="512" height="512" fill="#1a1a2e"/>

  <!-- 棋盘背景 -->
  <rect x="56" y="56" width="400" height="400" rx="16" fill="#DEB887"/>

  <!-- 棋盘边框 -->
  <rect x="56" y="56" width="400" height="400" rx="16" fill="none" stroke="#8B4513" stroke-width="4"/>

  <!-- 棋盘网格线 -->
  <g stroke="#5D4037" stroke-width="2" stroke-linecap="round">
    <line x1="96" y1="96" x2="416" y2="96"/>
    <line x1="96" y1="176" x2="416" y2="176"/>
    <line x1="96" y1="256" x2="416" y2="256"/>
    <line x1="96" y1="336" x2="416" y2="336"/>
    <line x1="96" y1="416" x2="416" y2="416"/>
    <line x1="96" y1="96" x2="96" y2="416"/>
    <line x1="176" y1="96" x2="176" y2="416"/>
    <line x1="256" y1="96" x2="256" y2="416"/>
    <line x1="336" y1="96" x2="336" y2="416"/>
    <line x1="416" y1="96" x2="416" y2="416"/>
  </g>

  <!-- 天元点 -->
  <circle cx="256" cy="256" r="6" fill="#5D4037"/>

  <!-- 黑子 (带阴影效果) -->
  <circle cx="180" cy="180" r="36" fill="#1a1a1a"/>
  <circle cx="176" cy="176" r="36" fill="#333"/>
  <ellipse cx="166" cy="166" rx="12" ry="10" fill="#555"/>

  <circle cx="260" cy="260" r="36" fill="#1a1a1a"/>
  <circle cx="256" cy="256" r="36" fill="#333"/>
  <ellipse cx="246" cy="246" rx="12" ry="10" fill="#555"/>

  <circle cx="340" cy="340" r="36" fill="#1a1a1a"/>
  <circle cx="336" cy="336" r="36" fill="#333"/>
  <ellipse cx="326" cy="326" rx="12" ry="10" fill="#555"/>

  <!-- 白子 (带阴影效果) -->
  <circle cx="260" cy="180" r="36" fill="#666"/>
  <circle cx="256" cy="176" r="36" fill="#f0f0f0"/>
  <ellipse cx="246" cy="166" rx="12" ry="10" fill="#fff"/>

  <circle cx="180" cy="260" r="36" fill="#666"/>
  <circle cx="176" cy="256" r="36" fill="#f0f0f0"/>
  <ellipse cx="166" cy="246" rx="12" ry="10" fill="#fff"/>
</svg>
